<mxfile host="65bd71144e">
    <diagram id="VKCeR6i6fkMEDjSecOGD" name="Page-1">
        <mxGraphModel dx="1001" dy="488" grid="0" gridSize="10" guides="1" tooltips="1" connect="1" arrows="1" fold="1" page="0" pageScale="1" pageWidth="850" pageHeight="1100" math="0" shadow="0">
            <root>
                <mxCell id="0"/>
                <mxCell id="1" parent="0"/>
                <mxCell id="2" value="&lt;h1 style=&quot;text-align: center&quot;&gt;&lt;font style=&quot;font-size: 18px&quot;&gt;Đồ án:&lt;/font&gt;&lt;/h1&gt;&lt;p&gt;&lt;font size=&quot;3&quot;&gt;API cần các chức năng:&lt;/font&gt;&lt;/p&gt;&lt;p&gt;&lt;font size=&quot;3&quot;&gt;- Tài khoản mật khẩu người dùng để chia riêng.&lt;/font&gt;&lt;/p&gt;&lt;p&gt;&lt;font size=&quot;3&quot;&gt;- Gửi và nhận data qua lại giữa Server và ESP32.&lt;/font&gt;&lt;/p&gt;&lt;p&gt;&lt;font size=&quot;3&quot;&gt;- Đọc data lưu vào database.&lt;/font&gt;&lt;/p&gt;&lt;p&gt;&lt;font size=&quot;3&quot;&gt;- Xem lịch sử bật tắt.&lt;/font&gt;&lt;/p&gt;" style="text;html=1;strokeColor=none;fillColor=none;spacing=5;spacingTop=-20;whiteSpace=wrap;overflow=hidden;rounded=0;" parent="1" vertex="1">
                    <mxGeometry x="-60" y="26" width="520" height="371" as="geometry"/>
                </mxCell>
            </root>
        </mxGraphModel>
    </diagram>
    <diagram id="0AMujI6tofTNpL-1CcDh" name="INDEX PAGE">
        <mxGraphModel dx="601" dy="488" grid="1" gridSize="10" guides="1" tooltips="1" connect="1" arrows="1" fold="1" page="1" pageScale="1" pageWidth="850" pageHeight="1100" math="0" shadow="0">
            <root>
                <mxCell id="K-vt16Gd0cKWhaHHMxbO-0"/>
                <mxCell id="K-vt16Gd0cKWhaHHMxbO-1" parent="K-vt16Gd0cKWhaHHMxbO-0"/>
                <mxCell id="K-vt16Gd0cKWhaHHMxbO-5" value="" style="rounded=0;whiteSpace=wrap;html=1;" vertex="1" parent="K-vt16Gd0cKWhaHHMxbO-1">
                    <mxGeometry x="40" y="210" width="550" height="360" as="geometry"/>
                </mxCell>
                <mxCell id="K-vt16Gd0cKWhaHHMxbO-6" value="" style="rounded=0;whiteSpace=wrap;html=1;" vertex="1" parent="K-vt16Gd0cKWhaHHMxbO-1">
                    <mxGeometry x="40" y="210" width="550" height="40" as="geometry"/>
                </mxCell>
                <mxCell id="K-vt16Gd0cKWhaHHMxbO-7" value="Login" style="rounded=0;whiteSpace=wrap;html=1;" vertex="1" parent="K-vt16Gd0cKWhaHHMxbO-1">
                    <mxGeometry x="470" y="210" width="120" height="40" as="geometry"/>
                </mxCell>
                <mxCell id="K-vt16Gd0cKWhaHHMxbO-8" value="LOGO" style="rounded=0;whiteSpace=wrap;html=1;" vertex="1" parent="K-vt16Gd0cKWhaHHMxbO-1">
                    <mxGeometry x="40" y="210" width="120" height="40" as="geometry"/>
                </mxCell>
                <mxCell id="K-vt16Gd0cKWhaHHMxbO-9" value="DEVICES LIST" style="rounded=0;whiteSpace=wrap;html=1;" vertex="1" parent="K-vt16Gd0cKWhaHHMxbO-1">
                    <mxGeometry x="160" y="210" width="120" height="40" as="geometry"/>
                </mxCell>
                <mxCell id="K-vt16Gd0cKWhaHHMxbO-10" value="FOOTER" style="rounded=0;whiteSpace=wrap;html=1;" vertex="1" parent="K-vt16Gd0cKWhaHHMxbO-1">
                    <mxGeometry x="40" y="540" width="550" height="30" as="geometry"/>
                </mxCell>
            </root>
        </mxGraphModel>
    </diagram>
    <diagram id="7Zje8PBtq3txmpI4r-dP" name="AFTER CHOOSING DEVICE">
        <mxGraphModel dx="601" dy="488" grid="1" gridSize="10" guides="1" tooltips="1" connect="1" arrows="1" fold="1" page="1" pageScale="1" pageWidth="850" pageHeight="1100" math="0" shadow="0">
            <root>
                <mxCell id="2LinjzJAuA53PbVBaMSw-0"/>
                <mxCell id="2LinjzJAuA53PbVBaMSw-1" parent="2LinjzJAuA53PbVBaMSw-0"/>
                <mxCell id="2LinjzJAuA53PbVBaMSw-2" value="" style="rounded=0;whiteSpace=wrap;html=1;" vertex="1" parent="2LinjzJAuA53PbVBaMSw-1">
                    <mxGeometry x="30" y="150" width="550" height="360" as="geometry"/>
                </mxCell>
                <mxCell id="2LinjzJAuA53PbVBaMSw-3" value="" style="rounded=0;whiteSpace=wrap;html=1;" vertex="1" parent="2LinjzJAuA53PbVBaMSw-1">
                    <mxGeometry x="30" y="150" width="550" height="40" as="geometry"/>
                </mxCell>
                <mxCell id="2LinjzJAuA53PbVBaMSw-4" value="Login" style="rounded=0;whiteSpace=wrap;html=1;" vertex="1" parent="2LinjzJAuA53PbVBaMSw-1">
                    <mxGeometry x="460" y="150" width="120" height="40" as="geometry"/>
                </mxCell>
                <mxCell id="2LinjzJAuA53PbVBaMSw-5" value="LOGO" style="rounded=0;whiteSpace=wrap;html=1;" vertex="1" parent="2LinjzJAuA53PbVBaMSw-1">
                    <mxGeometry x="30" y="150" width="120" height="40" as="geometry"/>
                </mxCell>
                <mxCell id="2LinjzJAuA53PbVBaMSw-6" value="DEVICES LIST" style="rounded=0;whiteSpace=wrap;html=1;" vertex="1" parent="2LinjzJAuA53PbVBaMSw-1">
                    <mxGeometry x="150" y="150" width="120" height="40" as="geometry"/>
                </mxCell>
                <mxCell id="2LinjzJAuA53PbVBaMSw-7" value="FOOTER" style="rounded=0;whiteSpace=wrap;html=1;" vertex="1" parent="2LinjzJAuA53PbVBaMSw-1">
                    <mxGeometry x="30" y="480" width="550" height="30" as="geometry"/>
                </mxCell>
                <mxCell id="2LinjzJAuA53PbVBaMSw-8" value="CONTROL OPTIONS" style="rounded=0;whiteSpace=wrap;html=1;" vertex="1" parent="2LinjzJAuA53PbVBaMSw-1">
                    <mxGeometry x="30" y="220" width="260" height="190" as="geometry"/>
                </mxCell>
                <mxCell id="2LinjzJAuA53PbVBaMSw-9" value="CONTROL HISTORY" style="rounded=0;whiteSpace=wrap;html=1;" vertex="1" parent="2LinjzJAuA53PbVBaMSw-1">
                    <mxGeometry x="370" y="220" width="210" height="190" as="geometry"/>
                </mxCell>
            </root>
        </mxGraphModel>
    </diagram>
</mxfile>